<svg width="21" height="20" viewBox="0 0 21 20" fill="none" xmlns="http://www.w3.org/2000/svg">
<path id="Vector" d="M8.80361 1.60209C9.29881 0.598707 10.7296 0.598697 11.2248 1.60209L13.5828 6.37981L18.8553 7.14595C19.9626 7.30685 20.4047 8.66764 19.6035 9.44864L15.7882 13.1675L16.6889 18.4188C16.878 19.5216 15.7205 20.3626 14.7301 19.8419L10.0142 17.3626L5.29833 19.8419C4.30794 20.3626 3.1504 19.5216 3.33955 18.4188L4.24021 13.1675L0.424968 9.44864C-0.376282 8.66764 0.0658586 7.30685 1.17316 7.14595L6.44569 6.37981L8.80361 1.60209ZM10.0142 2.53848L7.75589 7.11437C7.55925 7.51282 7.17913 7.78898 6.73942 7.85288L1.68963 8.58664L5.34369 12.1485C5.66187 12.4586 5.80706 12.9054 5.73195 13.3434L4.86934 18.3728L9.38601 15.9982C9.77931 15.7914 10.2491 15.7914 10.6424 15.9982L15.1591 18.3728L14.2965 13.3434C14.2214 12.9054 14.3666 12.4586 14.6847 12.1485L18.3388 8.58664L13.289 7.85288C12.8493 7.78898 12.4692 7.51282 12.2726 7.11437L10.0142 2.53848Z" fill="white"/>
</svg>
